<?xml version="1.0" standalone="no"?><!DOCTYPE svg PUBLIC "-//W3C//DTD SVG 1.1//EN" "http://www.w3.org/Graphics/SVG/1.1/DTD/svg11.dtd"><svg t="1544752277365" class="icon" style="" viewBox="0 0 1024 1024" version="1.1" xmlns="http://www.w3.org/2000/svg" p-id="5171" xmlns:xlink="http://www.w3.org/1999/xlink" width="200" height="200"><defs><style type="text/css"></style></defs><path d="M736 256C599.466667 256 490.666667 364.8 490.666667 501.333333L490.666667 512l0 10.666667c0 110.933333-91.733333 202.666667-202.666667 202.666667C177.066667 725.333333 85.333333 633.6 85.333333 522.666667l0-21.333333c0-110.933333 91.733333-202.666667 202.666667-202.666667 44.8 0 83.2 14.933333 117.333333 42.666667l-85.333333 0c-12.8 0-21.333333 8.533333-21.333333 21.333333 0 12.8 8.533333 21.333333 21.333333 21.333333l128 0c12.8 0 21.333333-8.533333 21.333333-21.333333l0-128c0-12.8-8.533333-21.333333-21.333333-21.333333s-21.333333 8.533333-21.333333 21.333333l0 70.4c-42.666667-32-91.733333-49.066667-138.666667-49.066667C151.466667 256 42.666667 364.8 42.666667 501.333333l0 21.333333C42.666667 659.2 151.466667 768 288 768S533.333333 659.2 533.333333 522.666667L533.333333 512l0-10.666667c0-110.933333 91.733333-202.666667 202.666667-202.666667s202.666667 91.733333 202.666667 202.666667l0 21.333333c0 110.933333-91.733333 202.666667-202.666667 202.666667-44.8 0-83.2-14.933333-117.333333-42.666667l85.333333 0c12.8 0 21.333333-8.533333 21.333333-21.333333 0-12.8-8.533333-21.333333-21.333333-21.333333l-128 0c-12.8 0-21.333333 8.533333-21.333333 21.333333l0 128c0 12.8 8.533333 21.333333 21.333333 21.333333s21.333333-8.533333 21.333333-21.333333l0-70.4c42.666667 32 91.733333 49.066667 138.666667 49.066667C872.533333 768 981.333333 659.2 981.333333 522.666667l0-21.333333C981.333333 364.8 872.533333 256 736 256z" p-id="5172"></path></svg>