<?xml version="1.0" standalone="no"?><!DOCTYPE svg PUBLIC "-//W3C//DTD SVG 1.1//EN" "http://www.w3.org/Graphics/SVG/1.1/DTD/svg11.dtd"><svg t="1541468169429" class="icon" style="" viewBox="0 0 1024 1024" version="1.1" xmlns="http://www.w3.org/2000/svg" p-id="8352" xmlns:xlink="http://www.w3.org/1999/xlink" width="200" height="200"><defs><style type="text/css"></style></defs><path d="M922.016 139.392l-60.8-59.424c-80.224-78.368-221.824-63.456-316.352 33.28l-81.952 83.872c-6.016 41.536-4.576 121.44 97.76 114.048l67.36-68.96c49.92-51.104 116.448-67.104 148.544-35.712l24.352 23.776c32.128 31.392 17.664 98.24-32.256 149.344l-114.144 116.832c-49.92 51.104-116.448 67.104-148.576 35.712l-13.728-13.408-110.048 111.904c0 0 143.296 141.856 326.272 17.792l187.584-192.032c94.56-96.736 106.144-238.688 25.952-317.056zM464.288 717.44l-69.184 67.136c-51.296 49.728-118.208 63.936-149.472 31.712l-23.712-24.416c-31.264-32.224-15.008-98.688 36.256-148.416l117.248-113.728c51.296-49.76 118.208-63.968 149.472-31.712l13.376 13.76 113.024-108.864c0 0-139.456-145.664-325.696-26.56l-192.704 186.912c-97.088 94.144-112.48 235.744-34.4 316.224l59.2 61.024c78.08 80.48 220.064 69.376 317.152-24.8l84.16-81.664c7.104-41.344 7.808-121.248-94.688-116.608z" p-id="8353"></path></svg>