<?xml version="1.0" standalone="no"?><!DOCTYPE svg PUBLIC "-//W3C//DTD SVG 1.1//EN" "http://www.w3.org/Graphics/SVG/1.1/DTD/svg11.dtd"><svg t="1547450184759" class="icon" style="" viewBox="0 0 1025 1024" version="1.1" xmlns="http://www.w3.org/2000/svg" p-id="5126" xmlns:xlink="http://www.w3.org/1999/xlink" width="200.1953125" height="200"><defs><style type="text/css"></style></defs><path d="M832.303041 127.501882l-64.0252 0L768.277841 95.488258c0-17.631388-14.317764-32.0126-32.0126-32.0126S704.252641 77.85687 704.252641 95.488258l0 32.013623-384.156318 0L320.096323 95.488258c0-17.631388-14.317764-32.0126-32.0126-32.0126S256.0701 77.85687 256.0701 95.488258l0 32.013623-64.0252 0c-70.71692 0-128.052447 57.397951-128.052447 128.051424l0 576.232941c0 70.778322 57.335527 128.051424 128.052447 128.051424l640.258141 0c70.71692 0 128.052447-57.273102 128.052447-128.051424L960.355488 255.553305C960.355488 184.899833 903.019961 127.501882 832.303041 127.501882zM192.0449 191.527082l64.0252 0 0 32.0126c0 17.757261 14.317764 32.013623 32.0126 32.013623s32.0126-14.256362 32.0126-32.013623l0-32.0126 384.156318 0 0 32.0126c0 17.757261 14.317764 32.013623 32.0126 32.013623s32.0126-14.256362 32.0126-32.013623l0-32.0126 64.0252 0c35.327248 0 64.0252 28.698976 64.0252 64.026223l0 128.051424-768.309565 0L128.017653 255.553305C128.0197 220.227081 156.717652 191.527082 192.0449 191.527082zM832.303041 895.81247l-640.258141 0c-35.327248 0-64.0252-28.698976-64.0252-64.0252L128.0197 447.630952l768.309565 0 0 384.155294C896.329265 867.113494 867.630289 895.81247 832.303041 895.81247z" p-id="5127"></path><path d="M512.17397 639.7086l64.0252 0 0 64.0252-64.0252 0 0-64.0252Z" p-id="5128"></path><path d="M448.14877 735.748446l0 32.011577 0 32.013623c0 17.757261 14.317764 32.0126 32.0126 32.0126s32.0126-14.256362 32.0126-32.0126l0-32.013623 0-32.011577 0-32.013623-64.0252 0L448.14877 735.748446z" p-id="5129"></path><path d="M576.200194 511.657176l-160.064024 0c-17.694836 0-32.0126 14.380188-32.0126 32.0126 0 17.757261 14.317764 32.0126 32.0126 32.0126l160.064024 0 0 32.0126L576.200194 639.7086l64.0252 0 0-32.0126 0-64.0252 0-32.0126-32.0126 0L576.200194 511.658199z" p-id="5130"></path></svg>