<?xml version="1.0" standalone="no"?><!DOCTYPE svg PUBLIC "-//W3C//DTD SVG 1.1//EN" "http://www.w3.org/Graphics/SVG/1.1/DTD/svg11.dtd"><svg t="1544752140519" class="icon" style="" viewBox="0 0 1024 1024" version="1.1" xmlns="http://www.w3.org/2000/svg" p-id="4196" xmlns:xlink="http://www.w3.org/1999/xlink" width="200" height="200"><defs><style type="text/css"></style></defs><path d="M512 65c246.871 0 447 200.129 447 447a445.017 445.017 0 0 1-88.8 267.446C788.512 888.384 658.35 959 512 959h-0.13c-145.693-0.041-275.319-70.073-357.041-178.213A445 445 0 0 1 65 512C65 265.129 265.129 65 512 65z m0 826.9c209.711 0 380.326-170.578 380.326-380.245S721.711 131.409 512 131.409 131.674 301.986 131.674 511.653 302.287 891.9 512 891.9zM261.392 355.074a33.567 33.567 0 0 1 30.085 48.367 243.066 243.066 0 0 0-25.086 108.212c0 135.4 110.178 245.555 245.607 245.555S757.6 647.051 757.6 511.653a243.019 243.019 0 0 0-25.085-108.212 33.558 33.558 0 0 1 60.226-29.619 309.581 309.581 0 0 1 31.977 137.831c0 172.4-140.287 312.657-312.722 312.657S199.277 684.054 199.277 511.653a309.6 309.6 0 0 1 31.977-137.831 33.562 33.562 0 0 1 30.138-18.748zM512 612.306a100.654 100.654 0 0 1-33.558-195.557V232.062a33.558 33.558 0 0 1 67.116 0v184.687A100.654 100.654 0 0 1 512 612.306z m0-134.2a33.551 33.551 0 1 0 33.558 33.551A33.593 33.593 0 0 0 512 478.1z" fill="" p-id="4197"></path></svg>