<?xml version="1.0" standalone="no"?><!DOCTYPE svg PUBLIC "-//W3C//DTD SVG 1.1//EN" "http://www.w3.org/Graphics/SVG/1.1/DTD/svg11.dtd"><svg t="1541468280416" class="icon" style="" viewBox="0 0 1024 1024" version="1.1" xmlns="http://www.w3.org/2000/svg" p-id="8820" xmlns:xlink="http://www.w3.org/1999/xlink" width="200" height="200"><defs><style type="text/css"></style></defs><path d="M936.272078 1022.417781 648.887122 1022.417781c-39.738999 0-71.926913-32.187914-71.926913-71.830104L576.96021 663.138183c0-39.673452 32.187914-71.862374 71.926913-71.862374l287.383947 0c39.641182 0 71.830104 32.187914 71.830104 71.862374l0 287.449495C1008.102182 990.228859 975.91326 1022.417781 936.272078 1022.417781L936.272078 1022.417781 936.272078 1022.417781zM936.272078 699.068361c0-19.788321-16.110596-35.931187-35.931187-35.931187L684.850579 663.137174c-19.886139 0-35.963456 16.142865-35.963456 35.931187l0 215.587121c0 19.820591 16.142865 35.932195 35.963456 35.932195l215.489304 0c19.820591 0 35.931187-16.110596 35.931187-35.932195L936.271069 699.068361 936.272078 699.068361 936.272078 699.068361zM936.272078 447.615601 648.887122 447.615601c-39.738999 0-71.926913-32.187914-71.926913-71.862374L576.96021 88.303733c0-39.608912 32.187914-71.830104 71.926913-71.830104l287.383947 0c39.641182 0 71.830104 32.221192 71.830104 71.830104l0 287.449495C1008.102182 415.426679 975.91326 447.615601 936.272078 447.615601L936.272078 447.615601 936.272078 447.615601zM936.272078 124.299459c0-19.820591-16.110596-35.931187-35.931187-35.931187L684.850579 88.368272c-19.886139 0-35.963456 16.110596-35.963456 35.931187l0 215.457034c0 19.886139 16.142865 35.931187 35.963456 35.931187l215.489304 0c19.820591 0 35.931187-16.110596 35.931187-35.931187L936.271069 124.299459 936.272078 124.299459 936.272078 124.299459zM361.37208 1022.417781 73.989142 1022.417781c-39.64219 0-71.831112-32.187914-71.831112-71.830104L2.158029 663.138183c0-39.673452 32.187914-71.862374 71.831112-71.862374l287.383947 0c39.738999 0 71.862374 32.187914 71.862374 71.862374l0 287.449495C433.235462 990.228859 401.111079 1022.417781 361.37208 1022.417781L361.37208 1022.417781 361.37208 1022.417781zM361.37208 699.068361c0-19.788321-16.077318-35.931187-35.963456-35.931187L109.983859 663.137174c-19.88513 0-35.931187 16.142865-35.931187 35.931187l0 215.587121c0 19.820591 16.110596 35.932195 35.931187 35.932195L325.474171 950.587677c19.886139 0 35.931187-16.110596 35.931187-35.932195L361.37208 699.068361 361.37208 699.068361 361.37208 699.068361 361.37208 699.068361zM361.37208 447.615601 73.989142 447.615601c-39.64219 0-71.831112-32.187914-71.831112-71.862374L2.158029 88.303733c0-39.608912 32.187914-71.830104 71.831112-71.830104l287.383947 0c39.738999 0 71.862374 32.221192 71.862374 71.830104l0 287.449495C433.235462 415.426679 401.111079 447.615601 361.37208 447.615601L361.37208 447.615601 361.37208 447.615601zM361.37208 124.299459c0-19.820591-16.077318-35.931187-35.963456-35.931187L109.983859 88.368272c-19.88513 0-35.931187 16.110596-35.931187 35.931187l0 215.457034c0 19.886139 16.110596 35.931187 35.931187 35.931187L325.474171 375.68768c19.886139 0 35.931187-16.110596 35.931187-35.931187L361.37208 124.299459 361.37208 124.299459 361.37208 124.299459 361.37208 124.299459z" p-id="8821"></path></svg>