<?xml version="1.0" standalone="no"?><!DOCTYPE svg PUBLIC "-//W3C//DTD SVG 1.1//EN" "http://www.w3.org/Graphics/SVG/1.1/DTD/svg11.dtd"><svg t="1546500320687" class="icon" style="" viewBox="0 0 1024 1024" version="1.1" xmlns="http://www.w3.org/2000/svg" p-id="3993" xmlns:xlink="http://www.w3.org/1999/xlink" width="200" height="200"><defs><style type="text/css"></style></defs><path d="M913.857461 396.859633c11.758812-14.706957 9.360182-36.174897-5.329379-47.933709-14.72333-11.775184-36.142152-9.343809-47.967478 5.329379-1.232061 1.565658-128.745223 157.741627-348.561627 157.741627-218.583321 0-347.362312-156.226111-348.561627-157.741627-11.791557-14.673188-33.210379-17.121959-47.967478-5.329379-14.68956 11.758812-17.08819 33.226752-5.329379 47.933709 2.113127 2.642177 21.660322 26.325575 56.684 55.720046l-59.815317 72.892147 52.730968 43.270503 61.98268-75.5333c25.709545 16.709567 55.655578 33.143864 89.703021 47.205115l-34.332946 95.016027 64.156182 23.184025 34.82004-96.363721c31.357172 8.410554 65.380056 14.159488 101.81999 16.500812l0 103.795994 68.219731 0L546.108842 578.751287c37.151132-2.388397 71.749114-8.359388 103.614869-17.031908l35.190477 96.261391 64.055898-23.433712-34.653241-94.792946c32.302707-13.469779 60.725036-29.102828 85.466534-45.005007l61.610196 76.041884 52.997028-42.954301-59.442834-73.369008C891.431705 424.184979 911.699308 399.558092 913.857461 396.859633z" p-id="3994" fill="#606266"></path></svg>