<?xml version="1.0" standalone="no"?><!DOCTYPE svg PUBLIC "-//W3C//DTD SVG 1.1//EN" "http://www.w3.org/Graphics/SVG/1.1/DTD/svg11.dtd"><svg t="1541468419212" class="icon" style="" viewBox="0 0 1024 1024" version="1.1" xmlns="http://www.w3.org/2000/svg" p-id="9041" xmlns:xlink="http://www.w3.org/1999/xlink" width="200" height="200"><defs><style type="text/css"></style></defs><path d="M942.5264421546667 239.03735838340737H693.9750940065186l115.39883986488888-115.39883986488888c8.876834209185184-8.876834209185184 8.876834209185184-22.19208430933333 0-31.06891851851852s-22.19208430933333-8.876834209185184-31.06891851851852 0L625.1796319194075 245.6949846471112c-2.2192079454814815 2.2192079454814815-4.438417104592592 4.438417104592592-4.438417104592592 6.657625050074073-2.2192079454814815 4.438417104592592-2.2192079454814815 11.096042154666666 0 17.75366720474074 2.2192079454814815 2.2192079454814815 2.2192079454814815 4.438417104592592 4.438417104592592 6.657626263703703l153.1253834334815 153.1253834334815c4.438417104592592 4.438417104592592 11.096042154666666 6.657625050074073 15.53445925925926 6.657625050074073s11.096042154666666-2.2192079454814815 15.53445925925926-6.657625050074073c8.876834209185184-8.876834209185184 8.876834209185184-22.19208430933333 0-31.06891851851852l-115.39883986488888-115.39883986488888h250.77055730725922c13.315251313777777 0 22.19208430933333-8.876834209185184 22.19208430933333-22.19208430933333s-11.096042154666666-22.19208430933333-24.411293468444445-22.19208552296296zM292.2983624248889 749.4553059934815c139.81013333333334 130.9332991241481 312.9083931306667 210.82480457955552 463.8145686186666 210.82480457955552 8.876834209185184 0 17.75366720474074 0 28.849710573037036-2.219209159111111s19.97287636385185-13.315251313777777 17.75366720474074-24.411293468444445c-2.2192079454814815-11.096042154666666-13.315251313777777-19.97287636385185-24.411293468444445-17.75366720474074-6.657625050074073 0-15.53445925925926 2.2192079454814815-22.19208430933333 2.2192079454814815-139.81013333333334 0-301.81235097599995-73.2338791917037-432.74565010014817-197.50955326577775-139.81013333333334-130.9332991241481-219.70163757511108-297.3739338714074-219.70163878874072-454.93773562311105 0-86.54913050548149 68.7954620871111-155.3445925925926 155.3445925925926-155.3445925925926s155.3445925925926 68.7954620871111 155.3445925925926 155.3445925925926c0 51.041794882370375-26.630501413925924 99.86438060562962-68.7954620871111 128.71409117866665l-8.876834209185184 6.657626263703703c-6.657625050074073 4.438417104592592-11.096042154666666 13.315251313777777-8.876834209185184 19.972875150222222v11.096043368296296c6.657625050074073 66.57625414162963 35.50733562311111 128.71409117866665 82.1107134008889 177.53667690192594s108.74121481481481 79.89150424177778 175.31746895644446 86.54913050548149l11.096042154666666 2.2192079454814815c8.876834209185184 2.2192079454814815 17.75366720474074-2.2192079454814815 22.19208552296296-11.096042154666666l6.657625050074073-11.096042154666666c28.849710573037036-44.384169832296294 77.6722962962963-71.01467124622222 130.9332991241481-71.01467124622222 86.54913050548149 0 155.3445925925926 68.7954620871111 155.3445925925926 155.3445925925926 0 42.164960673185185-17.75366720474074 84.32992134637037-48.822585723259266 113.17963191940738-8.876834209185184 8.876834209185184-8.876834209185184 22.19208430933333-2.219209159111111 31.06891851851852 8.876834209185184 8.876834209185184 22.19208430933333 8.876834209185184 31.06891851851852 2.2192079454814815 39.9457527277037-37.72654356859259 64.35704498251852-90.98754761007407 64.35704619614813-146.4677583834074 0-110.9604227602963-88.76833845096297-199.72876242488888-199.72876242488888-199.72876242488888-68.7954620871111 0-130.9332991241481 33.288126464-166.44063474725925 90.98754761007407-55.48021198696296-6.657625050074073-106.52200686933334-33.288126464-146.4677583834074-73.2338791917037-39.9457527277037-39.9457527277037-64.35704498251852-93.20675555555555-71.01467124622222-148.68696754251854 53.26100282785185-37.72654356859259 86.54913050548149-97.64517266014815 86.54913050548149-164.2214268017778 0-110.9604227602963-88.76833845096297-199.72876242488888-199.72876242488888-199.72876121125924s-199.72876242488888 88.76833845096297-199.72876121125924 199.72876121125924c2.2192079454814815 166.44063474725925 86.54913050548149 343.97731164918514 233.0168888888889 483.78744619614815z" fill="" p-id="9042"></path></svg>