<?xml version="1.0" standalone="no"?><!DOCTYPE svg PUBLIC "-//W3C//DTD SVG 1.1//EN" "http://www.w3.org/Graphics/SVG/1.1/DTD/svg11.dtd"><svg t="1541468004221" class="icon" style="" viewBox="0 0 1024 1024" version="1.1" xmlns="http://www.w3.org/2000/svg" p-id="6789" xmlns:xlink="http://www.w3.org/1999/xlink" width="200" height="200"><defs><style type="text/css"></style></defs><path d="M512.000512 0.024559c-282.862017 0-511.974929 229.238779-511.974929 511.973906s229.113936 511.973906 511.974929 511.973906c282.73615 0 511.974929-229.238779 511.974929-511.973906S794.736662 0.024559 512.000512 0.024559zM512.000512 959.976912c-246.988007 0-447.978447-200.957694-447.978447-447.977423 0-247.018706 200.990439-447.977423 447.978447-447.977423 247.050429 0 447.978447 200.95974 447.978447 447.977423C959.978958 759.019218 759.05094 959.976912 512.000512 959.976912z" p-id="6790"></path><path d="M512.000512 128.017524c-212.11479 0-383.980941 171.929596-383.980941 383.980941 0 201.277988 154.848586 366.400558 351.982188 382.659854l0 1.321087 63.997506 0 0-1.321087c197.133602-16.260319 351.983211-181.381866 351.983211-382.659854C895.981453 299.94712 724.114278 128.017524 512.000512 128.017524zM512.000512 192.014006c154.573317 0 283.830063 110.115823 313.551962 255.987976l-150.060541 0-327.108709 0-149.930581 0C228.197054 302.130853 357.536689 192.014006 512.000512 192.014006zM611.86998 511.999488l-66.74815 127.992965-1.124612 0-63.997506 0-1.124612 0-66.684705-127.992965L611.86998 511.999488zM192.01503 511.999488l147.977092 0 86.636086 166.366909c0 14.18608 12.749359 25.624585 28.499049 25.624585l24.873479 0L480.000736 830.386568C318.587647 814.273604 192.01503 677.624501 192.01503 511.999488zM543.998241 830.388614l0-126.398655 24.873479 0c15.74969 0 28.374206-11.438505 28.374206-25.624585l86.738417-166.366909 148.000628 0C831.983947 677.632687 705.511614 814.285884 543.998241 830.388614z" p-id="6791"></path></svg>