<?xml version="1.0" standalone="no"?><!DOCTYPE svg PUBLIC "-//W3C//DTD SVG 1.1//EN" "http://www.w3.org/Graphics/SVG/1.1/DTD/svg11.dtd"><svg t="1547450228509" class="icon" style="" viewBox="0 0 1280 1024" version="1.1" xmlns="http://www.w3.org/2000/svg" p-id="811" xmlns:xlink="http://www.w3.org/1999/xlink" width="250" height="200"><defs><style type="text/css"></style></defs><path d="M1221 746.6c5.2-28.2 5.2-57 0-85.2l51.6-29.8c6-3.4 8.6-10.4 6.6-17-13.4-43.2-36.4-82.4-66.4-114.8-4.6-5-12-6.2-18-2.8l-51.6 29.8c-21.8-18.6-46.8-33-73.8-42.6v-59.6c0-6.8-4.8-12.8-11.4-14.2-44.6-10-90-9.6-132.4 0-6.6 1.4-11.4 7.4-11.4 14.2v59.6c-27 9.6-52 24-73.8 42.6l-51.6-29.8c-5.8-3.4-13.4-2.2-18 2.8-30 32.4-53 71.6-66.4 114.8-2 6.6 0.8 13.6 6.6 17l51.6 29.8c-5.2 28.2-5.2 57 0 85.2l-51.6 29.8c-6 3.4-8.6 10.4-6.6 17 13.4 43.2 36.4 82.2 66.4 114.8 4.6 5 12 6.2 18 2.8l51.6-29.8c21.8 18.6 46.8 33 73.8 42.6v59.6c0 6.8 4.8 12.8 11.4 14.2 44.6 10 90 9.6 132.4 0 6.6-1.4 11.4-7.4 11.4-14.2v-59.6c27-9.6 52-24 73.8-42.6l51.6 29.8c5.8 3.4 13.4 2.2 18-2.8 30-32.4 53-71.6 66.4-114.8 2-6.6-0.8-13.6-6.6-17l-51.6-29.8zM992 801c-53.6 0-97-43.6-97-97s43.6-97 97-97 97 43.6 97 97-43.4 97-97 97zM448 512c141.4 0 256-114.6 256-256S589.4 0 448 0 192 114.6 192 256s114.6 256 256 256z m402.4 453c-4.6-2.4-9.2-5.2-13.6-7.8l-15.8 9.2c-12 6.8-25.6 10.6-39.2 10.6-21.8 0-42.8-9.2-57.8-25.2-36.6-39.6-64.6-87.8-80.4-139.2-11-35.4 3.8-72.8 35.8-91.4l15.8-9.2c-0.2-5.2-0.2-10.4 0-15.6l-15.8-9.2c-32-18.4-46.8-56-35.8-91.4 1.8-5.8 4.4-11.6 6.4-17.4-7.6-0.6-15-2.4-22.8-2.4h-33.4c-44.4 20.4-93.8 32-145.8 32s-101.2-11.6-145.8-32h-33.4C120.4 576 0 696.4 0 844.8V928c0 53 43 96 96 96h704c20.2 0 39-6.4 54.4-17-2.4-7.6-4-15.4-4-23.6v-18.4z" fill="" p-id="812"></path></svg>