<?xml version="1.0" standalone="no"?><!DOCTYPE svg PUBLIC "-//W3C//DTD SVG 1.1//EN" "http://www.w3.org/Graphics/SVG/1.1/DTD/svg11.dtd"><svg t="1544752426994" class="icon" style="" viewBox="0 0 1024 1024" version="1.1" xmlns="http://www.w3.org/2000/svg" p-id="8575" xmlns:xlink="http://www.w3.org/1999/xlink" width="200" height="200"><defs><style type="text/css"></style></defs><path d="M266.8 532.5l57.2-46.4 114.4 84.5S596.4 407 749 330.7l21.8 24.6S580.1 513.4 482.1 723.4L266.8 532.5zM202 209v369.8c0 60.1 0 218.8 314.1 343.6 314.1-124.8 314.1-283.5 314.1-343.6V209c-173.9-0.7-274-62.6-314.1-94.6-40.1 32-140.2 93.9-314.1 94.6z m314.1 773.2l-10-3.9C183.6 853.6 146.4 690.6 146.4 578.8V151.9l28.8 1c224.1 7.6 319.5-93.6 320.4-94.6l20.5-22.5 20.5 22.5c0.8 0.8 91.2 95 296.5 95 7.8 0 15.8-0.1 23.9-0.4l28.8-1v426.9c0 111.8-37.3 274.8-359.7 399.5l-10 3.9z" fill="" p-id="8576"></path></svg>