<?xml version="1.0" standalone="no"?><!DOCTYPE svg PUBLIC "-//W3C//DTD SVG 1.1//EN" "http://www.w3.org/Graphics/SVG/1.1/DTD/svg11.dtd"><svg t="1545372768151" class="icon" style="" viewBox="0 0 1024 1024" version="1.1" xmlns="http://www.w3.org/2000/svg" p-id="2889" xmlns:xlink="http://www.w3.org/1999/xlink" width="200" height="200"><defs><style type="text/css"></style></defs><path d="M204.8 443.835733c0-37.751467 24.439467-86.528 54.749867-108.817066C259.549867 335.018667 477.866667 170.666667 512 170.666667s252.791467 164.590933 252.791467 164.590933c30.037333 22.186667 54.408533 70.724267 54.408533 108.544v307.029333A68.232533 68.232533 0 0 1 751.104 819.2H272.896A68.164267 68.164267 0 0 1 204.8 750.830933v-306.9952z m139.946667 34.030934H307.541333a34.133333 34.133333 0 0 0 0 68.266666h37.205334a170.871467 170.871467 0 0 0 133.12 133.12v37.205334a34.133333 34.133333 0 1 0 68.266666 0V679.253333a170.871467 170.871467 0 0 0 133.12-133.12h37.205334a34.133333 34.133333 0 0 0 0-68.266666H679.253333a170.871467 170.871467 0 0 0-133.12-133.12V307.541333a34.133333 34.133333 0 1 0-68.266666 0v37.205334a170.871467 170.871467 0 0 0-133.12 133.12z m64.853333 34.133333a102.4 102.4 0 1 1 204.8 0 102.4 102.4 0 0 1-204.8 0z" fill="#ffffff" p-id="2890"></path></svg>